<svg width="44" height="44" viewBox="0 0 44 44" fill="none" xmlns="http://www.w3.org/2000/svg">
<path d="M3.38765 23.9351H11.0876L12.2324 33.3075C12.277 33.7475 12.6277 34.0552 13.0676 34.0999H13.1123C13.5076 34.0999 13.86 33.8352 13.9476 33.4399L18.3476 16.4123L23.0125 31.8572C23.1448 32.2525 23.4972 32.5172 23.9372 32.4725C24.3325 32.4278 24.6849 32.1202 24.7296 31.6802L25.6543 23.4953H33.5743C34.059 23.4953 34.4543 23.1 34.4543 22.6153V22.5706C34.4543 22.5259 34.4543 22.4383 34.4096 22.3953C34.4096 22.3506 34.4096 22.3506 34.3649 22.3076C34.3649 22.2629 34.3202 22.22 34.3202 22.1753C34.3202 22.1753 34.3202 22.1306 34.2755 22.1306C34.2308 22.0859 34.1879 22.0429 34.1432 21.9553L34.0985 21.9106C34.0538 21.8659 34.0108 21.8659 33.9661 21.8229H33.9215C31.5015 20.5476 27.9366 17.4229 27.4966 14.8278C27.3642 13.9478 27.5842 13.1555 28.2442 12.4955C29.6519 11.0002 31.6319 11.9678 33.0393 13.0231C33.347 13.2431 33.787 13.2431 34.0946 13.0231C35.5023 11.9678 37.4393 11.0431 38.8471 12.5384C39.3747 13.1108 39.6394 13.7261 39.6394 14.4737C39.5947 15.8814 38.5394 17.5984 36.6471 19.3586C36.2947 19.7109 36.2518 20.2386 36.6024 20.5909C36.9547 20.9433 37.4824 20.9863 37.8348 20.6356C39.4195 19.1833 41.31 16.8956 41.3995 14.5205C41.4441 13.3329 41.0041 12.2329 40.1242 11.3529C38.4518 9.59286 36.0765 9.59286 33.569 11.3082C31.0167 9.59288 28.6415 9.63582 26.969 11.3529C25.9567 12.4082 25.5167 13.7729 25.7814 15.1805C26.1767 17.5558 28.3767 20.0654 30.6214 21.7805H24.9476C24.5076 21.7805 24.1123 22.1329 24.0676 22.5729L23.5399 27.3253L19.1846 12.9377C19.0523 12.5424 18.7446 12.3224 18.3046 12.3224C17.9093 12.3224 17.557 12.5871 17.4694 12.9824L13.4646 28.5576L12.7599 22.9682C12.7153 22.5282 12.3199 22.1759 11.8799 22.1759H3.38751C2.9028 22.1759 2.50751 22.5712 2.50751 23.0559C2.50751 23.5406 2.90454 23.9359 3.38751 23.9359L3.38765 23.9351Z" fill="black"/>
</svg>
