<svg width="40" height="40" viewBox="0 0 40 40" fill="none" xmlns="http://www.w3.org/2000/svg">
<path d="M19.9968 10.0828L13.428 12.1797C13.3983 13.914 13.3233 15.6125 13.253 17.3189C13.2186 18.1032 13.1889 18.8954 13.1593 19.6626L13.153 19.7501C13.1061 20.9564 13.0483 22.5501 13.4639 23.6048C13.6389 24.0564 13.9327 24.4783 14.2671 24.8642C14.6249 25.2735 15.0343 25.6485 15.4327 25.9954C16.8327 27.2079 18.4327 28.3626 19.9907 29.4704C21.5548 28.3626 23.1548 27.2142 24.5487 25.9954C24.9471 25.6501 25.3565 25.2751 25.7143 24.8642C26.0534 24.4782 26.3409 24.0564 26.5175 23.6048C26.9331 22.5439 26.8753 20.9501 26.8284 19.7501L26.8221 19.6626C26.7925 18.9017 26.7581 18.1095 26.7284 17.3189C26.6581 15.6142 26.5815 13.9142 26.5534 12.1797L19.9846 10.0828H19.9968ZM12.6264 11.125L19.8044 8.83436C19.9216 8.79374 20.056 8.79374 20.1857 8.83436L27.3513 11.1187C27.6091 11.189 27.8028 11.4297 27.8075 11.7109C27.8309 13.55 27.9122 15.4016 27.9887 17.2657C28.0231 18.0329 28.0528 18.8064 28.0825 19.6157L28.0887 19.7032C28.1419 21.022 28.2059 22.7673 27.6903 24.0624C27.4559 24.6546 27.0872 25.1937 26.6653 25.6796C26.2606 26.1484 25.8044 26.564 25.37 26.939C23.8231 28.2812 22.0715 29.5281 20.378 30.7233L20.367 30.7343C20.1561 30.8921 19.8639 30.9046 19.6343 30.7405L19.6108 30.7233C17.9171 29.5218 16.1655 28.2796 14.6188 26.939C14.186 26.564 13.7345 26.1483 13.3235 25.6796C12.9016 25.1937 12.5329 24.6546 12.2985 24.0624C11.7891 22.7671 11.8532 21.0218 11.9063 19.7032L11.9126 19.6157C11.9422 18.8126 11.9766 18.0392 12.0063 17.2657C12.0876 15.4032 12.1641 13.5564 12.1876 11.7109C12.1938 11.4469 12.3579 11.2078 12.6204 11.125H12.6264Z" fill="black"/>
<path d="M20.1908 5.6656L30.0628 8.81716C30.3269 8.89841 30.4956 9.14528 30.4956 9.40936C30.4956 12.814 30.6237 15.4158 30.7237 17.5002C31.1565 26.3938 31.1628 26.5238 20.3533 34.2518C20.1252 34.4096 19.8315 34.3986 19.6205 34.2455C8.82853 26.5235 8.83453 26.4003 9.26133 17.5063C9.36133 15.4141 9.48946 12.8127 9.48946 9.41551C9.48946 9.11707 9.70039 8.86551 9.98166 8.80615L19.8065 5.67179C19.9346 5.63117 20.0705 5.63741 20.1877 5.67179L20.1908 5.6656ZM29.2548 9.8608L20.0032 6.90768L10.7516 9.8608C10.7407 13.0077 10.6172 15.52 10.5172 17.5592C10.125 25.692 10.1126 25.9028 20.0032 32.9748C29.894 25.8968 29.8812 25.6856 29.4892 17.5592C29.3892 15.5201 29.2674 13.006 29.2549 9.8608H29.2548Z" fill="black"/>
<path d="M24.5608 16.6624C24.8061 16.4171 25.1999 16.4171 25.4452 16.6624C25.6904 16.9077 25.6905 17.3015 25.4452 17.5468L18.936 24.056C18.6906 24.3013 18.2969 24.3013 18.0516 24.056L14.5532 20.5575C14.3078 20.3122 14.3078 19.9184 14.5532 19.6732C14.7985 19.4279 15.1922 19.4279 15.4375 19.6732L18.4953 22.731L24.5657 16.6606L24.5608 16.6624Z" fill="black"/>
<path d="M9.808 21.9248C10.1533 21.9248 10.4346 22.206 10.4346 22.5514C10.4346 22.8967 10.1533 23.1779 9.808 23.1779H4.9972C4.65188 23.1779 4.37064 22.8967 4.37064 22.5514V13.125C4.37064 12.7796 4.65188 12.4984 4.9972 12.4984H9.9536C10.2989 12.4984 10.5802 12.7796 10.5802 13.125C10.5802 13.4703 10.2989 13.7515 9.9536 13.7515H5.624V21.9251L9.808 21.9248ZM30.0392 13.7512C29.6939 13.7512 29.4126 13.4699 29.4126 13.1246C29.4126 12.7793 29.6939 12.4981 30.0392 12.4981H34.9956C35.3409 12.4981 35.6222 12.7793 35.6222 13.1246V22.551C35.6222 22.8964 35.3409 23.1776 34.9956 23.1776H30.1848C29.8395 23.1776 29.5582 22.8964 29.5582 22.551C29.5582 22.2057 29.8395 21.9245 30.1848 21.9245H34.3676V13.7509H30.038L30.0392 13.7512Z" fill="black"/>
</svg>
